<?xml version="1.0" encoding="utf-8"?>
<!-- Generator: Adobe Illustrator 16.0.3, SVG Export Plug-In . SVG Version: 6.00 Build 0)  -->
<!DOCTYPE svg PUBLIC "-//W3C//DTD SVG 1.1//EN" "http://www.w3.org/Graphics/SVG/1.1/DTD/svg11.dtd">
<svg version="1.1" id="Layer_1" xmlns="http://www.w3.org/2000/svg" xmlns:xlink="http://www.w3.org/1999/xlink" x="0px" y="0px"
	 width="320px" height="320px" viewBox="0 0 320 320" enable-background="new 0 0 320 320" xml:space="preserve">
<g>
	<rect y="-0.001" fill="none" stroke="#EAF51F" stroke-miterlimit="10" width="320" height="320.002"/>
	<path fill="#010102" d="M160,83.747c-42.114,0-76.252,34.132-76.252,76.252c0,42.105,34.138,76.25,76.252,76.25
		s76.252-34.145,76.252-76.25C236.252,117.879,202.114,83.747,160,83.747z M139.624,176.048c-8.692,0-15.742-7.182-15.742-16.049
		c0-8.87,7.05-16.057,15.742-16.057c8.699,0,15.754,7.187,15.754,16.057C155.378,168.866,148.323,176.048,139.624,176.048z
		 M180.37,176.048c-8.698,0-15.753-7.182-15.753-16.049c0-8.87,7.055-16.057,15.753-16.057c8.699,0,15.748,7.187,15.748,16.057
		C196.118,168.866,189.069,176.048,180.37,176.048z"/>
</g>
</svg>
