<?xml version="1.0" encoding="utf-8"?>
<!-- Generator: Adobe Illustrator 16.0.3, SVG Export Plug-In . SVG Version: 6.00 Build 0)  -->
<!DOCTYPE svg PUBLIC "-//W3C//DTD SVG 1.1//EN" "http://www.w3.org/Graphics/SVG/1.1/DTD/svg11.dtd">
<svg version="1.1" id="Layer_1" xmlns="http://www.w3.org/2000/svg" xmlns:xlink="http://www.w3.org/1999/xlink" x="0px" y="0px"
	 width="320px" height="320px" viewBox="0 0 320 320" enable-background="new 0 0 320 320" xml:space="preserve">
<g>
	<path fill="none" stroke="#EAF51F" stroke-miterlimit="10" d="M-2740,0"/>
	<path fill="none" stroke="#EAF51F" stroke-miterlimit="10" d="M-3060,0"/>
	<path fill="none" stroke="#EAF51F" stroke-miterlimit="10" d="M-3060,320"/>
	<path fill="none" stroke="#EAF51F" stroke-miterlimit="10" d="M-2740,320"/>
	<g>
		<path d="M-2791.066,92.83c-7.017-7.074-16.365-10.977-26.322-11.015l-20.066-0.075c7.248-1.42,13.917-4.937,19.272-10.26
			c7.16-7.099,11.109-16.569,11.153-26.647c0.044-14.289-7.805-27.208-20.508-33.741c-5.257-2.708-11.176-4.14-17.1-4.15
			c-10.094-0.05-19.593,3.845-26.752,10.946c-7.154,7.11-11.109,16.57-11.148,26.658c-0.061,14.278,7.8,27.208,20.514,33.741
			c3.398,1.743,7.104,2.75,10.878,3.401l-21.303-0.08c-20.558-0.061-37.345,16.614-37.422,37.177l-0.273,75.038
			c-0.033,9.954,3.817,19.328,10.838,26.394c2.802,2.836,5.985,5.163,9.432,6.939c2.526,1.302,5.19,2.272,7.948,2.956l-0.182,51.293
			c-0.022,8.367,3.21,16.238,9.096,22.163c2.361,2.377,5.025,4.318,7.91,5.803c4.341,2.233,9.173,3.414,14.176,3.437l10.248,0.038
			c17.254,0.061,31.331-13.928,31.392-31.17l0.182-51.376c6.575-1.566,12.653-4.799,17.574-9.691
			c7.076-7.021,10.993-16.362,11.021-26.327l0.275-75.038C-2780.2,109.273-2784.033,99.898-2791.066,92.83z M-2864.638,44.615
			c0.017-5.301,2.107-10.281,5.858-14.024c3.772-3.729,8.759-5.778,14.065-5.759c3.177,0.008,6.211,0.739,9.002,2.187
			c6.68,3.428,10.811,10.224,10.778,17.745c-0.017,5.301-2.107,10.282-5.858,14.024c-3.768,3.729-8.771,5.778-14.071,5.759
			C-2855.613,64.5-2864.676,55.261-2864.638,44.615z M-2798.408,194.215c-0.011,5.177-2.052,10.039-5.72,13.69
			c-3.674,3.652-8.556,5.648-13.734,5.638c-0.012,0-0.033,0.011-0.044,0.011c-0.033,0-0.056-0.021-0.089-0.021
			c-4.937-0.022-8.969,3.982-8.979,8.925l-0.199,59.152c-0.033,7.369-6.056,13.359-13.442,13.337l-10.254-0.049
			c-3.552,0-6.934-1.418-9.443-3.944c-2.51-2.537-3.905-5.913-3.894-9.477l0.215-59.152c0.017-4.964-3.982-8.991-8.908-8.991l0,0
			h-0.011c-10.679-0.017-19.361-8.748-19.334-19.449l0.271-75.03c0.044-10.704,8.771-19.375,19.466-19.344l55.055,0.204
			c5.179,0.02,10.044,2.049,13.679,5.734c3.657,3.671,5.66,8.544,5.638,13.729L-2798.408,194.215z"/>
		<path d="M-2945.305,125.846l-16.239-0.058c5.866-1.153,11.261-3.999,15.588-8.301c5.803-5.753,9.005-13.417,9.033-21.573
			c0.049-11.562-6.319-22.02-16.6-27.312c-4.258-2.19-9.043-3.362-13.848-3.371c-8.164-0.03-15.853,3.125-21.639,8.878
			c-5.792,5.742-8.997,13.407-9.024,21.559c-0.058,11.575,6.307,22.033,16.6,27.326c2.744,1.41,5.731,2.223,8.773,2.747
			l-17.201-0.061c-16.642-0.05-30.244,13.448-30.302,30.086l-0.215,60.755c-0.039,11.716,6.652,21.92,16.435,26.951
			c2.01,1.036,4.167,1.842,6.412,2.404l-0.152,41.519c-0.019,6.779,2.587,13.145,7.353,17.954c1.906,1.908,4.074,3.491,6.418,4.694
			c3.494,1.793,7.402,2.764,11.462,2.764l8.302,0.038c13.966,0.039,25.362-11.28,25.403-25.235l0.138-41.567
			c5.328-1.28,10.249-3.895,14.233-7.854c5.734-5.692,8.897-13.25,8.917-21.309l0.234-60.741
			C-2915.174,139.508-2928.642,125.906-2945.305,125.846z M-2983.541,95.729c0.008-4.286,1.696-8.321,4.732-11.338
			c3.05-3.028,7.102-4.675,11.39-4.669c2.565,0.011,5.017,0.598,7.276,1.771c5.417,2.771,8.756,8.279,8.74,14.363
			c-0.022,4.289-1.699,8.321-4.749,11.349c-3.056,3.025-7.096,4.688-11.385,4.669
			C-2976.26,111.843-2983.583,104.361-2983.541,95.729z M-2929.94,216.83c-0.008,4.182-1.66,8.131-4.636,11.076
			c-2.984,2.951-6.925,4.567-11.117,4.562c-0.019,0-0.03,0.006-0.052,0.006c-0.02,0-0.033-0.006-0.053-0.006
			c-4.004-0.011-7.256,3.222-7.275,7.215l-0.168,47.884c-0.02,5.968-4.89,10.812-10.858,10.8l-8.301-0.044
			c-2.871-0.005-5.604-1.131-7.645-3.188c-2.033-2.052-3.155-4.787-3.144-7.678l0.166-47.878c0.019-4.005-3.224-7.259-7.218-7.281
			c-8.66-0.017-15.676-7.082-15.643-15.736l0.212-60.736c0.03-8.66,7.102-15.682,15.762-15.662l44.563,0.179
			c8.652,0.025,15.663,7.088,15.635,15.74L-2929.94,216.83z"/>
	</g>
</g>
<g>
	<path fill="none" stroke="#EAF51F" stroke-miterlimit="10" d="M-2400,0"/>
	<path fill="none" stroke="#EAF51F" stroke-miterlimit="10" d="M-2720,0"/>
	<path fill="none" stroke="#EAF51F" stroke-miterlimit="10" d="M-2720,320"/>
	<path fill="none" stroke="#EAF51F" stroke-miterlimit="10" d="M-2400,320"/>
	<g>
		<path d="M-2541.853,183.073c-5.842,0-13.205,3.806-17.265,7.38c-4.06-3.574-11.44-7.38-17.26-7.38
			c-12.73,0-20.972,12.659-21.01,23.045c-0.083,19.124,38.27,42.743,38.27,42.743s38.352-23.619,38.27-42.743
			C-2520.887,195.732-2529.127,183.073-2541.853,183.073z"/>
		<path d="M-2541.946,65.78c-5.505-2.832-11.699-4.338-17.904-4.352c-10.574-0.052-20.514,4.03-28.005,11.468
			c-7.496,7.444-11.639,17.353-11.677,27.908c-0.061,14.954,8.169,28.487,21.479,35.327c5.505,2.83,11.678,4.335,17.905,4.355
			c10.563,0.049,20.502-4.032,27.998-11.473c7.491-7.436,11.633-17.359,11.678-27.911
			C-2520.429,86.145-2528.647,72.62-2541.946,65.78z M-2545.35,115.713c-3.949,3.911-9.185,6.054-14.738,6.037
			c-11.259-0.055-20.746-9.728-20.707-20.87c0.022-5.557,2.212-10.77,6.14-14.683c3.943-3.905,9.167-6.057,14.722-6.032
			c3.326,0.008,6.503,0.778,9.427,2.286c6.994,3.594,11.318,10.709,11.291,18.578
			C-2539.238,106.587-2541.428,111.796-2545.35,115.713z"/>
		<path d="M-2559.994,25.332c-74.261,0-134.66,60.413-134.66,134.665c0,74.264,60.399,134.674,134.66,134.674
			c74.249,0,134.638-60.41,134.638-134.674C-2425.356,85.745-2485.745,25.332-2559.994,25.332z M-2617.52,261.604l0.275-71.613
			c0.094-28.551,12.946-28.368,18.197-28.492l68.1,0.206c7.65,0.039,14.815,3.025,20.193,8.467c5.384,5.4,8.323,12.571,8.296,20.228
			l-0.265,71.343c-16.945,9.586-36.455,15.113-57.271,15.113C-2580.916,276.854-2600.515,271.262-2617.52,261.604z
			 M-2481.757,246.55l0.237-56.074c0.05-13.249-5.063-25.704-14.375-35.076c-9.316-9.385-21.732-14.582-34.971-14.637l-68.115-0.209
			c-0.045,0-0.083,0-0.133,0c-11.81,0-38.932,4.868-39.069,49.348l-0.248,56.473c-23.536-21.391-38.43-52.137-38.43-86.377
			c0-64.439,52.424-116.863,116.866-116.863c64.431,0,116.849,52.423,116.849,116.863
			C-2443.146,194.331-2458.115,225.148-2481.757,246.55z"/>
	</g>
</g>
<g>
	<path fill="none" stroke="#EAF51F" stroke-miterlimit="10" d="M-2060,0"/>
	<path fill="none" stroke="#EAF51F" stroke-miterlimit="10" d="M-2380,0"/>
	<path fill="none" stroke="#EAF51F" stroke-miterlimit="10" d="M-2380,320"/>
	<path fill="none" stroke="#EAF51F" stroke-miterlimit="10" d="M-2060,320"/>
	<g>
		<path fill="#010102" d="M-2219.983,26.388c-49.665,0-89.898,40.244-89.898,89.893c0,27.475,12.312,52.026,31.705,68.519v27.739
			c0,7.783,6.321,14.104,14.11,14.104h2.106v37.37c0,7.783,6.321,14.088,14.1,14.088h3.529v1.412
			c0,7.782,6.311,14.104,14.121,14.104h22.561c7.777,0,14.099-6.321,14.099-14.104v-1.412h1.412c7.777,0,14.087-6.305,14.087-14.088
			v-37.37h2.13c7.788,0,14.099-6.321,14.099-14.104V184.8c19.404-16.493,31.705-41.044,31.705-68.508
			C-2130.118,66.632-2170.352,26.388-2219.983,26.388z M-2177.533,171.732v27.403c0,7.794-6.332,14.099-14.099,14.099h-55.711
			c-7.766,0-14.076-6.305-14.076-14.099v-27.403c-16.923-12.996-27.833-33.62-27.833-56.853c0-39.301,31.23-71.15,69.754-71.15
			c38.545,0,69.798,31.849,69.798,71.15C-2149.7,138.113-2160.632,158.737-2177.533,171.732z"/>
		<path fill="#010102" d="M-2216.111,55.998c-33.106,0.011-59.947,26.846-59.947,59.941c0,3.105,2.516,5.637,5.638,5.637
			s5.659-2.515,5.659-5.637c0-13.459,5.428-25.583,14.242-34.414c8.825-8.809,20.961-14.237,34.408-14.237
			c3.1,0,5.615-2.526,5.615-5.648C-2210.496,58.529-2213.012,55.998-2216.111,55.998z"/>
	</g>
</g>
<g>
	<path fill="none" stroke="#EAF51F" stroke-miterlimit="10" d="M-1720,0"/>
	<path fill="none" stroke="#EAF51F" stroke-miterlimit="10" d="M-2040,0"/>
	<path fill="none" stroke="#EAF51F" stroke-miterlimit="10" d="M-2040,320"/>
	<path fill="none" stroke="#EAF51F" stroke-miterlimit="10" d="M-1720,320"/>
	<path d="M-1880,25.34c-74.25,0-134.66,60.41-134.66,134.654c0,74.26,60.41,134.67,134.66,134.67
		c74.244,0,134.654-60.41,134.654-134.67C-1745.346,85.75-1805.756,25.34-1880,25.34z M-1784.751,92.529
		c-5.511,1.622-11.352,3.69-16.587,7.601c-7.032,5.246-11.76,13.343-15.643,20.519c-2.72,5.031-3.944,10.332-5.03,15.015
		c-0.453,1.919-0.883,3.833-1.435,5.703c-1.958,6.614-4.055,11.76-8.412,16.884c-2.631,3.094-5.593,5.908-8.561,8.737
		c-2.576,2.455-5.141,4.938-7.546,7.535l-4.804,5.251c-3.762,4.132-7.513,8.263-11.484,12.19l-3.707,3.723
		c-6.955,7.033-14.153,14.314-21.986,17.502c-1.015,0.414-1.654,0.597-4.131-0.325c-8.015-2.885-12.996-6.276-18.385-12.516
		c-2.195-2.554-4.722-4.909-7.281-7.259c-3.905-3.618-7.606-7.032-9.179-10.921c-2.272-5.621-1.902-12.538-1.494-19.863l0.165-3.127
		c0.221-4.744,1.545-9.592,2.94-14.733l0.551-2.014c0.293-1.086,0.558-2.25,0.8-3.414c0.392-1.727,1.016-4.623,1.639-5.196
		c0.981-0.777,5.218-0.838,7.237-0.877l4.683-0.104c13.607-0.326,27.668-0.657,41.617-5.053
		c11.187-3.524,15.461-11.821,19.472-19.609c4.253-8.247,8.583-26.791,13.414-48.375c0.651-2.946,1.264-5.66,1.804-8.026
		C-1815.32,60.234-1797.576,74.487-1784.751,92.529z M-1880,276.854c-64.437,0-116.86-52.412-116.86-116.86
		c0-64.432,52.424-116.854,116.86-116.854c9.267,0,18.235,1.197,26.885,3.249c-0.635,2.73-1.346,5.941-2.157,9.537
		c-3.105,13.911-8.317,37.21-12.107,44.569c-3.514,6.823-4.97,9.123-8.759,10.32c-11.534,3.641-23.746,3.928-36.681,4.236
		l-4.529,0.1c-5.256,0.083-13.188,0.204-19.024,5.582c-4.766,4.385-6.051,10.227-6.966,14.501c-0.193,0.877-0.381,1.738-0.607,2.554
		l-0.529,1.963c-1.594,5.853-3.237,11.881-3.568,18.589l-0.139,2.989c-0.474,8.544-1.003,18.225,2.759,27.53
		c3.066,7.584,8.671,12.758,13.618,17.32c2.047,1.881,4.099,3.739,5.869,5.808c7.419,8.589,14.898,13.702,25.809,17.623
		c2.411,0.883,5.346,1.722,8.732,1.722c2.471,0,5.201-0.447,8.157-1.655c11.214-4.562,20.101-13.558,27.933-21.474l3.569-3.579
		c4.192-4.153,8.169-8.506,12.135-12.886l4.699-5.13c2.157-2.333,4.474-4.539,6.796-6.751c3.282-3.149,6.686-6.398,9.818-10.083
		c6.729-7.938,9.691-15.914,11.903-23.354c0.651-2.212,1.187-4.468,1.716-6.729c0.91-3.949,1.765-7.656,3.354-10.574
		c2.146-3.988,6.155-11.39,10.624-14.722c3.762-2.813,8.924-4.253,14.407-5.786c0.309-0.094,0.612-0.204,0.938-0.287
		c7.733,15.604,12.212,33.106,12.212,51.673C-1763.135,224.442-1815.568,276.854-1880,276.854z"/>
</g>
<g>
	<path fill="none" stroke="#EAF51F" stroke-miterlimit="10" d="M-1380,0.001"/>
	<path fill="none" stroke="#EAF51F" stroke-miterlimit="10" d="M-1700,0.001"/>
	<path fill="none" stroke="#EAF51F" stroke-miterlimit="10" d="M-1700,319.999"/>
	<path fill="none" stroke="#EAF51F" stroke-miterlimit="10" d="M-1380,319.999"/>
	<g>
		<path fill="#010102" d="M-1525.631,217.558c15.467-28.876,47.63-88.98,12.99-109.806c-19.653-11.79-49.152-7.579-75.535,9.967
			l-2.554,1.713l-2.874,26.661l9.752-3.307c4.479-1.52,8.671-2.327,12.174-2.327c6.994,0,8.169,3.107,8.616,4.274
			c5.643,14.857-8.937,41.901-19.593,61.638c-4.672,8.704-9.096,16.9-11.683,23.563c-10.145,26.097-5.538,41.403,0.121,49.666
			c6.983,10.204,19.537,15.797,35.357,15.797c15.378,0,32.77-5.317,47.751-14.617l2.73-1.693l2.901-27.221l-9.272,2.516
			c-9.896,2.702-17.402,2.106-19.891-1.539c-1.213-1.804-3.403-7.65,2.703-22.886
			C-1531.021,227.63-1528.521,222.952-1525.631,217.558z M-1545.505,260.206c2.774,4.104,8.467,9.002,19.813,9.002
			c1.66,0,3.387-0.11,5.174-0.314l-0.243,2.334c-12.3,7.043-26.007,11.031-38.098,11.031c-11.363,0-20.062-3.585-24.519-10.094
			c-5.521-8.075-5.097-21.049,1.279-37.476c2.295-5.907,6.531-13.757,11.021-22.074c12.516-23.2,28.087-52.082,20.298-72.549
			c-3.133-8.221-10.546-12.747-20.899-12.747c-2.162,0-4.401,0.185-6.752,0.563l0.083-0.863
			c13.255-8.246,27.552-12.939,39.682-12.939c7.319,0,13.795,1.66,19.233,4.941c23.934,14.378-5.306,69.005-17.777,92.326
			c-3.332,6.222-5.736,10.717-6.934,13.734C-1550.348,240.548-1550.812,252.396-1545.505,260.206z"/>
		<path fill="#010102" d="M-1514.698,24.605c-19.301,0-35.021,15.712-35.021,35.025c0,19.312,15.72,35.026,35.021,35.026
			c19.316,0,35.031-15.715,35.031-35.026C-1479.667,40.317-1495.382,24.605-1514.698,24.605z M-1514.698,81.519
			c-12.053,0-21.882-9.821-21.882-21.888c0-12.068,9.829-21.882,21.882-21.882c12.068,0,21.893,9.813,21.893,21.882
			C-1492.806,71.697-1502.63,81.519-1514.698,81.519z"/>
	</g>
</g>
<g>
	<polygon fill="#010102" points="-1125.541,112.414 -1152.432,85.547 -1200.018,133.127 -1247.592,85.535 -1274.472,112.42 
		-1226.874,160 -1274.472,207.592 -1247.592,234.46 -1200.006,186.874 -1152.42,234.46 -1125.529,207.581 -1173.139,160 	"/>
	<path fill="#010102" d="M-1200.006,0C-1288.365,0-1360,71.636-1360,159.994c0,88.371,71.635,160.006,159.994,160.006
		c88.358,0,160.006-71.635,160.006-160.006C-1040,71.636-1111.647,0-1200.006,0z M-1200.006,285.214
		c-69.155,0-125.208-56.064-125.208-125.22c0-69.154,56.053-125.213,125.208-125.213c69.166,0,125.219,56.059,125.219,125.213
		C-1074.787,229.149-1130.84,285.214-1200.006,285.214z"/>
</g>
<g>
	<path fill="none" stroke="#EAF51F" stroke-miterlimit="10" d="M-700,0"/>
	<path fill="none" stroke="#EAF51F" stroke-miterlimit="10" d="M-1020,0"/>
	<path fill="none" stroke="#EAF51F" stroke-miterlimit="10" d="M-1020,320"/>
	<path fill="none" stroke="#EAF51F" stroke-miterlimit="10" d="M-700,320"/>
	<path fill="#010102" d="M-860,83.753c-42.114,0-76.252,34.133-76.252,76.252c0,42.109,34.138,76.252,76.252,76.252
		s76.252-34.144,76.252-76.252C-783.748,117.886-817.886,83.753-860,83.753z M-828.989,146.216c0.033,0.651,0.044,1.296,0.044,1.941
		c0,19.847-15.108,42.737-42.731,42.737c-8.479,0-16.372-2.493-23.019-6.751c1.175,0.143,2.366,0.209,3.58,0.209
		c7.038,0,13.514-2.399,18.655-6.432c-6.575-0.115-12.119-4.457-14.033-10.425c0.922,0.177,1.864,0.271,2.83,0.271
		c1.368,0,2.697-0.183,3.955-0.524c-6.873-1.385-12.047-7.458-12.047-14.728c0-0.066,0-0.132,0-0.188
		c2.024,1.12,4.347,1.798,6.807,1.875c-4.038-2.691-6.686-7.292-6.686-12.499c0-2.758,0.739-5.334,2.03-7.557
		c7.413,9.09,18.478,15.069,30.96,15.698c-0.259-1.103-0.392-2.25-0.392-3.425c0-8.291,6.729-15.02,15.021-15.02
		c4.318,0,8.224,1.826,10.96,4.744c3.42-0.673,6.641-1.919,9.542-3.641c-1.125,3.503-3.508,6.448-6.607,8.307
		c3.039-0.364,5.935-1.169,8.627-2.361C-823.507,141.456-826.05,144.098-828.989,146.216z"/>
</g>
<g>
	<path fill="none" stroke="#EAF51F" stroke-miterlimit="10" d="M-360,0"/>
	<path fill="none" stroke="#EAF51F" stroke-miterlimit="10" d="M-680,0"/>
	<path fill="none" stroke="#EAF51F" stroke-miterlimit="10" d="M-680,320"/>
	<path fill="none" stroke="#EAF51F" stroke-miterlimit="10" d="M-360,320"/>
	<path fill="#010102" d="M-519.994,83.751c-42.12,0-76.252,34.132-76.252,76.252c0,42.105,34.132,76.249,76.252,76.249
		c42.108,0,76.252-34.144,76.252-76.249C-443.742,117.883-477.886,83.751-519.994,83.751z M-501.936,136.439h-11.468
		c-1.352,0-2.862,1.787-2.862,4.17v8.274h14.33v11.804h-14.33v35.432h-13.536v-35.432h-12.268v-11.804h12.268v-6.939
		c0-9.962,6.911-18.059,16.398-18.059h11.468V136.439z"/>
</g>
<g>
	<rect x="-340" y="-0.001" fill="none" stroke="#EAF51F" stroke-miterlimit="10" width="320" height="320.002"/>
	<path fill="#010102" d="M-180,83.747c-42.114,0-76.252,34.132-76.252,76.252c0,42.105,34.138,76.25,76.252,76.25
		s76.252-34.145,76.252-76.25C-103.748,117.879-137.886,83.747-180,83.747z M-200.376,176.048c-8.692,0-15.742-7.182-15.742-16.049
		c0-8.87,7.05-16.057,15.742-16.057c8.699,0,15.754,7.187,15.754,16.057C-184.622,168.866-191.677,176.048-200.376,176.048z
		 M-159.63,176.048c-8.698,0-15.753-7.182-15.753-16.049c0-8.87,7.055-16.057,15.753-16.057c8.699,0,15.748,7.187,15.748,16.057
		C-143.882,168.866-150.931,176.048-159.63,176.048z"/>
</g>
<g>
	<rect y="-0.001" fill="none" stroke="#EAF51F" stroke-miterlimit="10" width="320" height="320.002"/>
	<path fill="#010102" d="M160,83.747c-42.114,0-76.252,34.132-76.252,76.252c0,42.105,34.138,76.249,76.252,76.249
		s76.258-34.144,76.258-76.249C236.258,117.879,202.114,83.747,160,83.747z M194.96,145.31
		c-4.038,23.17-26.593,42.784-33.371,47.263c-6.79,4.479-12.979-1.798-15.219-6.542c-2.57-5.405-10.271-34.741-12.289-37.174
		c-2.014-2.427-8.064,2.433-8.064,2.433l-2.935-3.922c0,0,12.284-14.948,21.634-16.813c9.912-1.985,9.9,15.5,12.283,25.219
		c2.306,9.388,3.856,14.758,5.869,14.758c2.019,0,5.869-5.232,10.083-13.263c4.226-8.037-0.182-15.136-8.434-10.089
		C167.816,127.003,198.992,122.148,194.96,145.31z"/>
</g>
</svg>
