<?xml version="1.0" encoding="utf-8"?>
<!-- Generator: Adobe Illustrator 16.0.3, SVG Export Plug-In . SVG Version: 6.00 Build 0)  -->
<!DOCTYPE svg PUBLIC "-//W3C//DTD SVG 1.1//EN" "http://www.w3.org/Graphics/SVG/1.1/DTD/svg11.dtd">
<svg version="1.1" id="Layer_1" xmlns="http://www.w3.org/2000/svg" xmlns:xlink="http://www.w3.org/1999/xlink" x="0px" y="0px"
	 width="320px" height="320px" viewBox="0 0 320 320" enable-background="new 0 0 320 320" xml:space="preserve">
<g>
	<path fill="none" stroke="#EAF51F" stroke-miterlimit="10" d="M320,0"/>
	<path fill="none" stroke="#EAF51F" stroke-miterlimit="10" d="M0,0"/>
	<path fill="none" stroke="#EAF51F" stroke-miterlimit="10" d="M0,320"/>
	<path fill="none" stroke="#EAF51F" stroke-miterlimit="10" d="M320,320"/>
	<path d="M160,25.34c-74.25,0-134.66,60.41-134.66,134.654c0,74.26,60.41,134.67,134.66,134.67
		c74.244,0,134.654-60.41,134.654-134.67C294.654,85.75,234.244,25.34,160,25.34z M255.249,92.529
		c-5.511,1.622-11.352,3.69-16.587,7.601c-7.032,5.246-11.76,13.343-15.643,20.519c-2.72,5.031-3.944,10.332-5.03,15.015
		c-0.453,1.919-0.883,3.833-1.435,5.703c-1.958,6.614-4.055,11.76-8.412,16.884c-2.631,3.094-5.593,5.908-8.561,8.737
		c-2.576,2.455-5.141,4.938-7.546,7.535l-4.804,5.251c-3.762,4.132-7.513,8.263-11.484,12.19l-3.707,3.723
		c-6.955,7.033-14.153,14.314-21.986,17.502c-1.015,0.414-1.654,0.597-4.131-0.325c-8.015-2.885-12.996-6.276-18.385-12.516
		c-2.195-2.554-4.722-4.909-7.281-7.259c-3.905-3.618-7.606-7.032-9.179-10.921c-2.272-5.621-1.902-12.538-1.494-19.863l0.165-3.127
		c0.221-4.744,1.545-9.592,2.94-14.733l0.551-2.014c0.293-1.086,0.558-2.25,0.8-3.414c0.392-1.727,1.016-4.623,1.639-5.196
		c0.981-0.777,5.218-0.838,7.237-0.877l4.683-0.104c13.607-0.326,27.668-0.657,41.617-5.053
		c11.187-3.524,15.461-11.821,19.472-19.609c4.253-8.247,8.583-26.791,13.414-48.375c0.651-2.946,1.264-5.66,1.804-8.026
		C224.68,60.234,242.424,74.487,255.249,92.529z M160,276.854c-64.437,0-116.86-52.412-116.86-116.86
		C43.14,95.563,95.563,43.14,160,43.14c9.267,0,18.235,1.197,26.885,3.249c-0.635,2.73-1.346,5.941-2.157,9.537
		c-3.105,13.911-8.317,37.21-12.107,44.569c-3.514,6.823-4.97,9.123-8.759,10.32c-11.534,3.641-23.746,3.928-36.681,4.236
		l-4.529,0.1c-5.256,0.083-13.188,0.204-19.024,5.582c-4.766,4.385-6.051,10.227-6.966,14.501c-0.193,0.877-0.381,1.738-0.607,2.554
		l-0.529,1.963c-1.594,5.853-3.237,11.881-3.568,18.589l-0.139,2.989c-0.474,8.544-1.003,18.225,2.759,27.53
		c3.066,7.584,8.671,12.758,13.618,17.32c2.047,1.881,4.099,3.739,5.869,5.808c7.419,8.589,14.898,13.702,25.809,17.623
		c2.411,0.883,5.346,1.722,8.732,1.722c2.471,0,5.201-0.447,8.157-1.655c11.214-4.562,20.101-13.558,27.933-21.474l3.569-3.579
		c4.192-4.153,8.169-8.506,12.135-12.886l4.699-5.13c2.157-2.333,4.474-4.539,6.796-6.751c3.282-3.149,6.686-6.398,9.818-10.083
		c6.729-7.938,9.691-15.914,11.903-23.354c0.651-2.212,1.187-4.468,1.716-6.729c0.91-3.949,1.765-7.656,3.354-10.574
		c2.146-3.988,6.155-11.39,10.624-14.722c3.762-2.813,8.924-4.253,14.407-5.786c0.309-0.094,0.612-0.204,0.938-0.287
		c7.733,15.604,12.212,33.106,12.212,51.673C276.865,224.442,224.432,276.854,160,276.854z"/>
</g>
</svg>
