<?xml version="1.0" encoding="utf-8"?>
<!-- Generator: Adobe Illustrator 16.0.3, SVG Export Plug-In . SVG Version: 6.00 Build 0)  -->
<!DOCTYPE svg PUBLIC "-//W3C//DTD SVG 1.1//EN" "http://www.w3.org/Graphics/SVG/1.1/DTD/svg11.dtd">
<svg version="1.1" id="Layer_1" xmlns="http://www.w3.org/2000/svg" xmlns:xlink="http://www.w3.org/1999/xlink" x="0px" y="0px"
	 width="320px" height="320px" viewBox="0 0 320 320" enable-background="new 0 0 320 320" xml:space="preserve">
<g>
	<rect y="-0.001" fill="none" stroke="#EAF51F" stroke-miterlimit="10" width="320" height="320.002"/>
	<path fill="#010102" d="M160,83.747c-42.114,0-76.252,34.132-76.252,76.252c0,42.105,34.138,76.249,76.252,76.249
		s76.258-34.144,76.258-76.249C236.258,117.879,202.114,83.747,160,83.747z M194.96,145.31
		c-4.038,23.17-26.593,42.784-33.371,47.263c-6.79,4.479-12.979-1.798-15.219-6.542c-2.57-5.405-10.271-34.741-12.289-37.174
		c-2.014-2.427-8.064,2.433-8.064,2.433l-2.935-3.922c0,0,12.284-14.948,21.634-16.813c9.912-1.985,9.9,15.5,12.283,25.219
		c2.306,9.388,3.856,14.758,5.869,14.758c2.019,0,5.869-5.232,10.083-13.263c4.226-8.037-0.182-15.136-8.434-10.089
		C167.816,127.003,198.992,122.148,194.96,145.31z"/>
</g>
</svg>
