<?xml version="1.0" encoding="utf-8"?>
<!-- Generator: Adobe Illustrator 16.0.3, SVG Export Plug-In . SVG Version: 6.00 Build 0)  -->
<!DOCTYPE svg PUBLIC "-//W3C//DTD SVG 1.1//EN" "http://www.w3.org/Graphics/SVG/1.1/DTD/svg11.dtd">
<svg version="1.1" id="Layer_1" xmlns="http://www.w3.org/2000/svg" xmlns:xlink="http://www.w3.org/1999/xlink" x="0px" y="0px"
	 width="320px" height="320px" viewBox="0 0 320 320" enable-background="new 0 0 320 320" xml:space="preserve">
<g>
	<path fill="none" stroke="#EAF51F" stroke-miterlimit="10" d="M320,0"/>
	<path fill="none" stroke="#EAF51F" stroke-miterlimit="10" d="M0,0"/>
	<path fill="none" stroke="#EAF51F" stroke-miterlimit="10" d="M0,320"/>
	<path fill="none" stroke="#EAF51F" stroke-miterlimit="10" d="M320,320"/>
	<path fill="#010102" d="M160.006,83.751c-42.12,0-76.252,34.132-76.252,76.252c0,42.105,34.132,76.249,76.252,76.249
		c42.108,0,76.252-34.144,76.252-76.249C236.258,117.883,202.114,83.751,160.006,83.751z M178.064,136.439h-11.468
		c-1.352,0-2.862,1.787-2.862,4.17v8.274h14.33v11.804h-14.33v35.432h-13.536v-35.432h-12.268v-11.804h12.268v-6.939
		c0-9.962,6.911-18.059,16.398-18.059h11.468V136.439z"/>
</g>
</svg>
