<?xml version="1.0" encoding="utf-8"?>
<!-- Generator: Adobe Illustrator 16.0.3, SVG Export Plug-In . SVG Version: 6.00 Build 0)  -->
<!DOCTYPE svg PUBLIC "-//W3C//DTD SVG 1.1//EN" "http://www.w3.org/Graphics/SVG/1.1/DTD/svg11.dtd">
<svg version="1.1" id="Layer_1" xmlns="http://www.w3.org/2000/svg" xmlns:xlink="http://www.w3.org/1999/xlink" x="0px" y="0px"
	 width="320px" height="320px" viewBox="0 0 320 320" enable-background="new 0 0 320 320" xml:space="preserve">
<g>
	<path fill="none" stroke="#EAF51F" stroke-miterlimit="10" d="M320,0"/>
	<path fill="none" stroke="#EAF51F" stroke-miterlimit="10" d="M0,0"/>
	<path fill="none" stroke="#EAF51F" stroke-miterlimit="10" d="M0,320"/>
	<path fill="none" stroke="#EAF51F" stroke-miterlimit="10" d="M320,320"/>
	<g>
		<path d="M178.147,183.073c-5.842,0-13.205,3.806-17.265,7.38c-4.06-3.574-11.44-7.38-17.26-7.38
			c-12.73,0-20.972,12.659-21.01,23.045c-0.083,19.124,38.27,42.743,38.27,42.743s38.352-23.619,38.27-42.743
			C199.113,195.732,190.873,183.073,178.147,183.073z"/>
		<path d="M178.054,65.78c-5.505-2.832-11.699-4.338-17.904-4.352c-10.574-0.052-20.514,4.03-28.005,11.468
			c-7.496,7.444-11.639,17.353-11.677,27.908c-0.061,14.954,8.169,28.487,21.479,35.327c5.505,2.83,11.678,4.335,17.905,4.355
			c10.563,0.049,20.502-4.032,27.998-11.473c7.491-7.436,11.633-17.359,11.678-27.911C199.571,86.145,191.353,72.62,178.054,65.78z
			 M174.65,115.713c-3.949,3.911-9.185,6.054-14.738,6.037c-11.259-0.055-20.746-9.728-20.707-20.87
			c0.022-5.557,2.212-10.77,6.14-14.683c3.943-3.905,9.167-6.057,14.722-6.032c3.326,0.008,6.503,0.778,9.427,2.286
			c6.994,3.594,11.318,10.709,11.291,18.578C180.762,106.587,178.572,111.796,174.65,115.713z"/>
		<path d="M160.006,25.332c-74.261,0-134.66,60.413-134.66,134.665c0,74.264,60.399,134.674,134.66,134.674
			c74.249,0,134.638-60.41,134.638-134.674C294.644,85.745,234.255,25.332,160.006,25.332z M102.48,261.604l0.275-71.613
			c0.094-28.551,12.946-28.368,18.197-28.492l68.1,0.206c7.65,0.039,14.815,3.025,20.193,8.467c5.384,5.4,8.323,12.571,8.296,20.228
			l-0.265,71.343c-16.945,9.586-36.455,15.113-57.271,15.113C139.084,276.854,119.485,271.262,102.48,261.604z M238.243,246.55
			l0.237-56.074c0.05-13.249-5.063-25.704-14.375-35.076c-9.316-9.385-21.732-14.582-34.971-14.637l-68.115-0.209
			c-0.045,0-0.083,0-0.133,0c-11.81,0-38.932,4.868-39.069,49.348l-0.248,56.473c-23.536-21.391-38.43-52.137-38.43-86.377
			c0-64.439,52.424-116.863,116.866-116.863c64.431,0,116.849,52.423,116.849,116.863
			C276.854,194.331,261.885,225.148,238.243,246.55z"/>
	</g>
</g>
</svg>
