<?xml version="1.0" encoding="utf-8"?>
<!-- Generator: Adobe Illustrator 16.0.3, SVG Export Plug-In . SVG Version: 6.00 Build 0)  -->
<!DOCTYPE svg PUBLIC "-//W3C//DTD SVG 1.1//EN" "http://www.w3.org/Graphics/SVG/1.1/DTD/svg11.dtd">
<svg version="1.1" id="Layer_1" xmlns="http://www.w3.org/2000/svg" xmlns:xlink="http://www.w3.org/1999/xlink" x="0px" y="0px"
	 width="320px" height="320px" viewBox="0 0 320 320" enable-background="new 0 0 320 320" xml:space="preserve">
<g>
	<polygon fill="#010102" points="234.459,112.414 207.568,85.547 159.982,133.127 112.408,85.535 85.528,112.42 133.126,160 
		85.528,207.592 112.408,234.46 159.994,186.874 207.58,234.46 234.471,207.581 186.861,160 	"/>
	<path fill="#010102" d="M159.994,0C71.635,0,0,71.636,0,159.994C0,248.365,71.635,320,159.994,320
		C248.353,320,320,248.365,320,159.994C320,71.636,248.353,0,159.994,0z M159.994,285.214c-69.155,0-125.208-56.064-125.208-125.22
		c0-69.154,56.053-125.213,125.208-125.213c69.166,0,125.219,56.059,125.219,125.213
		C285.213,229.149,229.16,285.214,159.994,285.214z"/>
</g>
</svg>
