<?xml version="1.0" encoding="utf-8"?>
<!-- Generator: Adobe Illustrator 16.0.3, SVG Export Plug-In . SVG Version: 6.00 Build 0)  -->
<!DOCTYPE svg PUBLIC "-//W3C//DTD SVG 1.1//EN" "http://www.w3.org/Graphics/SVG/1.1/DTD/svg11.dtd">
<svg version="1.1" id="Layer_1" xmlns="http://www.w3.org/2000/svg" xmlns:xlink="http://www.w3.org/1999/xlink" x="0px" y="0px"
	 width="320px" height="320px" viewBox="0 0 320 320" enable-background="new 0 0 320 320" xml:space="preserve">
<g>
	<path fill="none" stroke="#EAF51F" stroke-miterlimit="10" d="M320,0"/>
	<path fill="none" stroke="#EAF51F" stroke-miterlimit="10" d="M0,0"/>
	<path fill="none" stroke="#EAF51F" stroke-miterlimit="10" d="M0,320"/>
	<path fill="none" stroke="#EAF51F" stroke-miterlimit="10" d="M320,320"/>
	<g>
		<path d="M268.934,92.83c-7.017-7.074-16.365-10.977-26.322-11.015l-20.066-0.075c7.248-1.42,13.917-4.937,19.272-10.26
			c7.16-7.099,11.109-16.569,11.153-26.647c0.044-14.289-7.805-27.208-20.508-33.741c-5.257-2.708-11.176-4.14-17.1-4.15
			c-10.094-0.05-19.593,3.845-26.752,10.946c-7.154,7.11-11.109,16.57-11.148,26.658c-0.061,14.278,7.8,27.208,20.514,33.741
			c3.398,1.743,7.104,2.75,10.878,3.401l-21.303-0.08c-20.558-0.061-37.345,16.614-37.422,37.177l-0.273,75.038
			c-0.033,9.954,3.817,19.328,10.838,26.394c2.802,2.836,5.985,5.163,9.432,6.939c2.526,1.302,5.19,2.272,7.948,2.956l-0.182,51.293
			c-0.022,8.367,3.21,16.238,9.096,22.163c2.361,2.377,5.025,4.318,7.91,5.803c4.341,2.233,9.173,3.414,14.176,3.437l10.248,0.038
			c17.254,0.061,31.331-13.928,31.392-31.17l0.182-51.376c6.575-1.566,12.653-4.799,17.574-9.691
			c7.076-7.021,10.993-16.362,11.021-26.327l0.275-75.038C279.8,109.273,275.967,99.898,268.934,92.83z M195.362,44.615
			c0.017-5.301,2.107-10.281,5.858-14.024c3.772-3.729,8.759-5.778,14.065-5.759c3.177,0.008,6.211,0.739,9.002,2.187
			c6.68,3.428,10.811,10.224,10.778,17.745c-0.017,5.301-2.107,10.282-5.858,14.024c-3.768,3.729-8.771,5.778-14.071,5.759
			C204.387,64.5,195.324,55.261,195.362,44.615z M261.592,194.215c-0.011,5.177-2.052,10.039-5.72,13.69
			c-3.674,3.652-8.556,5.648-13.734,5.638c-0.012,0-0.033,0.011-0.044,0.011c-0.033,0-0.056-0.021-0.089-0.021
			c-4.937-0.022-8.969,3.982-8.979,8.925l-0.199,59.152c-0.033,7.369-6.056,13.359-13.442,13.337l-10.254-0.049
			c-3.552,0-6.934-1.418-9.443-3.944c-2.51-2.537-3.905-5.913-3.894-9.477l0.215-59.152c0.017-4.964-3.982-8.991-8.908-8.991l0,0
			h-0.011c-10.679-0.017-19.361-8.748-19.334-19.449l0.271-75.03c0.044-10.704,8.771-19.375,19.466-19.344l55.055,0.204
			c5.179,0.02,10.044,2.049,13.679,5.734c3.657,3.671,5.66,8.544,5.638,13.729L261.592,194.215z"/>
		<path d="M114.695,125.846l-16.239-0.058c5.866-1.153,11.261-3.999,15.588-8.301c5.803-5.753,9.005-13.417,9.033-21.573
			c0.049-11.562-6.319-22.02-16.6-27.312c-4.258-2.19-9.043-3.362-13.848-3.371c-8.164-0.03-15.853,3.125-21.639,8.878
			c-5.792,5.742-8.997,13.407-9.024,21.559c-0.058,11.575,6.307,22.033,16.6,27.326c2.744,1.41,5.731,2.223,8.773,2.747
			l-17.201-0.061c-16.642-0.05-30.244,13.448-30.302,30.086l-0.215,60.755c-0.039,11.716,6.652,21.92,16.435,26.951
			c2.01,1.036,4.167,1.842,6.412,2.404l-0.152,41.519c-0.019,6.779,2.587,13.145,7.353,17.954c1.906,1.908,4.074,3.491,6.418,4.694
			c3.494,1.793,7.402,2.764,11.462,2.764l8.302,0.038c13.966,0.039,25.362-11.28,25.403-25.235l0.138-41.567
			c5.328-1.28,10.249-3.895,14.233-7.854c5.734-5.692,8.897-13.25,8.917-21.309l0.234-60.741
			C144.826,139.508,131.358,125.906,114.695,125.846z M76.459,95.729c0.008-4.286,1.696-8.321,4.732-11.338
			c3.05-3.028,7.102-4.675,11.39-4.669c2.565,0.011,5.017,0.598,7.276,1.771c5.417,2.771,8.756,8.279,8.74,14.363
			c-0.022,4.289-1.699,8.321-4.749,11.349c-3.056,3.025-7.096,4.688-11.385,4.669C83.74,111.843,76.417,104.361,76.459,95.729z
			 M130.06,216.83c-0.008,4.182-1.66,8.131-4.636,11.076c-2.984,2.951-6.925,4.567-11.117,4.562c-0.019,0-0.03,0.006-0.052,0.006
			c-0.02,0-0.033-0.006-0.053-0.006c-4.004-0.011-7.256,3.222-7.275,7.215l-0.168,47.884c-0.02,5.968-4.89,10.812-10.858,10.8
			l-8.301-0.044c-2.871-0.005-5.604-1.131-7.645-3.188c-2.033-2.052-3.155-4.787-3.144-7.678l0.166-47.878
			c0.019-4.005-3.224-7.259-7.218-7.281c-8.66-0.017-15.676-7.082-15.643-15.736l0.212-60.736c0.03-8.66,7.102-15.682,15.762-15.662
			l44.563,0.179c8.652,0.025,15.663,7.088,15.635,15.74L130.06,216.83z"/>
	</g>
</g>
</svg>
