<?xml version="1.0" encoding="utf-8"?>
<!-- Generator: Adobe Illustrator 16.0.3, SVG Export Plug-In . SVG Version: 6.00 Build 0)  -->
<!DOCTYPE svg PUBLIC "-//W3C//DTD SVG 1.1//EN" "http://www.w3.org/Graphics/SVG/1.1/DTD/svg11.dtd">
<svg version="1.1" id="Layer_1" xmlns="http://www.w3.org/2000/svg" xmlns:xlink="http://www.w3.org/1999/xlink" x="0px" y="0px"
	 width="320px" height="320px" viewBox="0 0 320 320" enable-background="new 0 0 320 320" xml:space="preserve">
<g>
	<path fill="none" stroke="#EAF51F" stroke-miterlimit="10" d="M320,0"/>
	<path fill="none" stroke="#EAF51F" stroke-miterlimit="10" d="M0,0"/>
	<path fill="none" stroke="#EAF51F" stroke-miterlimit="10" d="M0,320"/>
	<path fill="none" stroke="#EAF51F" stroke-miterlimit="10" d="M320,320"/>
	<path fill="#010102" d="M160,83.753c-42.114,0-76.252,34.133-76.252,76.252c0,42.109,34.138,76.252,76.252,76.252
		s76.252-34.144,76.252-76.252C236.252,117.886,202.114,83.753,160,83.753z M191.011,146.216c0.033,0.651,0.044,1.296,0.044,1.941
		c0,19.847-15.108,42.737-42.731,42.737c-8.479,0-16.372-2.493-23.019-6.751c1.175,0.143,2.366,0.209,3.58,0.209
		c7.038,0,13.514-2.399,18.655-6.432c-6.575-0.115-12.119-4.457-14.033-10.425c0.922,0.177,1.864,0.271,2.83,0.271
		c1.368,0,2.697-0.183,3.955-0.524c-6.873-1.385-12.047-7.458-12.047-14.728c0-0.066,0-0.132,0-0.188
		c2.024,1.12,4.347,1.798,6.807,1.875c-4.038-2.691-6.686-7.292-6.686-12.499c0-2.758,0.739-5.334,2.03-7.557
		c7.413,9.09,18.478,15.069,30.96,15.698c-0.259-1.103-0.392-2.25-0.392-3.425c0-8.291,6.729-15.02,15.021-15.02
		c4.318,0,8.224,1.826,10.96,4.744c3.42-0.673,6.641-1.919,9.542-3.641c-1.125,3.503-3.508,6.448-6.607,8.307
		c3.039-0.364,5.935-1.169,8.627-2.361C196.493,141.456,193.95,144.098,191.011,146.216z"/>
</g>
</svg>
