<?xml version="1.0" encoding="utf-8"?>
<!-- Generator: Adobe Illustrator 16.0.3, SVG Export Plug-In . SVG Version: 6.00 Build 0)  -->
<!DOCTYPE svg PUBLIC "-//W3C//DTD SVG 1.1//EN" "http://www.w3.org/Graphics/SVG/1.1/DTD/svg11.dtd">
<svg version="1.1" id="Layer_1" xmlns="http://www.w3.org/2000/svg" xmlns:xlink="http://www.w3.org/1999/xlink" x="0px" y="0px"
	 width="320px" height="320px" viewBox="0 0 320 320" enable-background="new 0 0 320 320" xml:space="preserve">
<g>
	<path fill="none" stroke="#EAF51F" stroke-miterlimit="10" d="M320,0"/>
	<path fill="none" stroke="#EAF51F" stroke-miterlimit="10" d="M0,0"/>
	<path fill="none" stroke="#EAF51F" stroke-miterlimit="10" d="M0,320"/>
	<path fill="none" stroke="#EAF51F" stroke-miterlimit="10" d="M320,320"/>
	<g>
		<path fill="#010102" d="M160.017,26.388c-49.665,0-89.898,40.244-89.898,89.893c0,27.475,12.312,52.026,31.705,68.519v27.739
			c0,7.783,6.321,14.104,14.11,14.104h2.106v37.37c0,7.783,6.321,14.088,14.1,14.088h3.529v1.412
			c0,7.782,6.311,14.104,14.121,14.104h22.561c7.777,0,14.099-6.321,14.099-14.104v-1.412h1.412c7.777,0,14.087-6.305,14.087-14.088
			v-37.37h2.13c7.788,0,14.099-6.321,14.099-14.104V184.8c19.404-16.493,31.705-41.044,31.705-68.508
			C249.882,66.632,209.648,26.388,160.017,26.388z M202.467,171.732v27.403c0,7.794-6.332,14.099-14.099,14.099h-55.711
			c-7.766,0-14.076-6.305-14.076-14.099v-27.403c-16.923-12.996-27.833-33.62-27.833-56.853c0-39.301,31.23-71.15,69.754-71.15
			c38.545,0,69.798,31.849,69.798,71.15C230.3,138.113,219.368,158.737,202.467,171.732z"/>
		<path fill="#010102" d="M163.889,55.998c-33.106,0.011-59.947,26.846-59.947,59.941c0,3.105,2.516,5.637,5.638,5.637
			s5.659-2.515,5.659-5.637c0-13.459,5.428-25.583,14.242-34.414c8.825-8.809,20.961-14.237,34.408-14.237
			c3.1,0,5.615-2.526,5.615-5.648C169.504,58.529,166.988,55.998,163.889,55.998z"/>
	</g>
</g>
</svg>
