<?xml version="1.0" encoding="utf-8"?>
<!-- Generator: Adobe Illustrator 16.0.3, SVG Export Plug-In . SVG Version: 6.00 Build 0)  -->
<!DOCTYPE svg PUBLIC "-//W3C//DTD SVG 1.1//EN" "http://www.w3.org/Graphics/SVG/1.1/DTD/svg11.dtd">
<svg version="1.1" id="Layer_1" xmlns="http://www.w3.org/2000/svg" xmlns:xlink="http://www.w3.org/1999/xlink" x="0px" y="0px"
	 width="320px" height="320px" viewBox="0 0 320 320" enable-background="new 0 0 320 320" xml:space="preserve">
<g>
	<path fill="none" stroke="#EAF51F" stroke-miterlimit="10" d="M320,0.001"/>
	<path fill="none" stroke="#EAF51F" stroke-miterlimit="10" d="M0,0.001"/>
	<path fill="none" stroke="#EAF51F" stroke-miterlimit="10" d="M0,319.999"/>
	<path fill="none" stroke="#EAF51F" stroke-miterlimit="10" d="M320,319.999"/>
	<g>
		<path fill="#010102" d="M174.369,217.558c15.467-28.876,47.63-88.98,12.99-109.806c-19.653-11.79-49.152-7.579-75.535,9.967
			l-2.554,1.713l-2.874,26.661l9.752-3.307c4.479-1.52,8.671-2.327,12.174-2.327c6.994,0,8.169,3.107,8.616,4.274
			c5.643,14.857-8.937,41.901-19.593,61.638c-4.672,8.704-9.096,16.9-11.683,23.563c-10.145,26.097-5.538,41.403,0.121,49.666
			c6.983,10.204,19.537,15.797,35.357,15.797c15.378,0,32.77-5.317,47.751-14.617l2.73-1.693l2.901-27.221l-9.272,2.516
			c-9.896,2.702-17.402,2.106-19.891-1.539c-1.213-1.804-3.403-7.65,2.703-22.886C168.979,227.63,171.479,222.952,174.369,217.558z
			 M154.495,260.206c2.774,4.104,8.467,9.002,19.813,9.002c1.66,0,3.387-0.11,5.174-0.314l-0.243,2.334
			c-12.3,7.043-26.007,11.031-38.098,11.031c-11.363,0-20.062-3.585-24.519-10.094c-5.521-8.075-5.097-21.049,1.279-37.476
			c2.295-5.907,6.531-13.757,11.021-22.074c12.516-23.2,28.087-52.082,20.298-72.549c-3.133-8.221-10.546-12.747-20.899-12.747
			c-2.162,0-4.401,0.185-6.752,0.563l0.083-0.863c13.255-8.246,27.552-12.939,39.682-12.939c7.319,0,13.795,1.66,19.233,4.941
			c23.934,14.378-5.306,69.005-17.777,92.326c-3.332,6.222-5.736,10.717-6.934,13.734
			C149.652,240.548,149.188,252.396,154.495,260.206z"/>
		<path fill="#010102" d="M185.302,24.605c-19.301,0-35.021,15.712-35.021,35.025c0,19.312,15.72,35.026,35.021,35.026
			c19.316,0,35.031-15.715,35.031-35.026C220.333,40.317,204.618,24.605,185.302,24.605z M185.302,81.519
			c-12.053,0-21.882-9.821-21.882-21.888c0-12.068,9.829-21.882,21.882-21.882c12.068,0,21.893,9.813,21.893,21.882
			C207.194,71.697,197.37,81.519,185.302,81.519z"/>
	</g>
</g>
</svg>
